<?xml version="1.0" encoding="UTF-8"?>
<svg version="1.1" xmlns="http://www.w3.org/2000/svg" width="512" height="512">
<path d="M0 0 C3.82036277 3.4056261 6.14557934 7.73283826 6.83261681 12.80776787 C6.92907409 15.01411984 6.93402258 17.20166505 6.90307617 19.40991211 C6.90373329 20.65502563 6.90373329 20.65502563 6.90440369 21.92529297 C6.90232705 24.6470559 6.87904966 27.3681895 6.85546875 30.08984375 C6.84986879 31.98555668 6.84560058 33.88127397 6.84260559 35.7769928 C6.83118836 40.75009286 6.80174815 45.72292726 6.76849365 50.69592285 C6.73772533 55.77706306 6.72408583 60.85824647 6.70898438 65.93945312 C6.67687538 75.89725171 6.62571693 85.8548537 6.5625 95.8125 C7.69152992 96.11049248 7.69152992 96.11049248 8.84336853 96.414505 C9.83212479 96.67901962 10.82088104 96.94353424 11.83959961 97.21606445 C12.81916122 97.4766011 13.79872284 97.73713776 14.80796814 98.00556946 C24.59288005 100.87202542 33.01869276 107.13964742 40.5625 113.8125 C41.17480469 114.33070313 41.78710938 114.84890625 42.41796875 115.3828125 C56.49960513 128.20773533 64.72743904 148.78140277 65.765625 167.46875 C66.04031618 189.99342697 59.5222013 209.86362212 43.921875 226.40625 C42.75398438 227.59734375 42.75398438 227.59734375 41.5625 228.8125 C40.82515625 229.5859375 40.0878125 230.359375 39.328125 231.15625 C31.50237292 238.8244366 17.81692881 247.8125 6.5625 247.8125 C6.56618717 248.93379303 6.56987434 250.05508606 6.57367325 251.21035767 C6.66247058 278.49359517 6.72820262 305.77681392 6.76974869 333.06016541 C6.79037406 346.25419246 6.81849439 359.44812406 6.86425781 372.64208984 C6.90412609 384.14191883 6.92993299 395.64167868 6.93885398 407.14157486 C6.94406868 413.23072111 6.95632503 419.31966958 6.98542023 425.40875244 C7.01258893 431.14114938 7.02094192 436.87326722 7.01493073 442.60572243 C7.0160303 444.70837738 7.02397532 446.81104175 7.0393219 448.91364098 C7.05927228 451.78822753 7.05442051 454.66176529 7.04351807 457.53637695 C7.05516943 458.3651919 7.0668208 459.19400684 7.07882524 460.04793739 C7.01129165 466.65182168 5.03879161 471.62165658 0.9921875 476.8359375 C-3.68876967 480.90531233 -8.20916696 482.65446767 -14.4375 482.8125 C-21.49955875 482.06413258 -25.62436278 479.38629803 -30.0625 473.9453125 C-33.50352057 468.60782037 -33.72095607 464.07159875 -33.67800903 457.8971405 C-33.67971788 456.99857041 -33.68142673 456.10000032 -33.68318737 455.17420083 C-33.68648169 452.16317191 -33.67547943 449.15236582 -33.66455078 446.14135742 C-33.66398666 443.98301194 -33.66430325 441.82466606 -33.66543579 439.6663208 C-33.66601025 433.80520001 -33.6542408 427.94416087 -33.64028788 422.08305907 C-33.62779608 415.95847851 -33.62661124 409.83389614 -33.62423706 403.70930481 C-33.61801773 392.11072396 -33.60160077 380.51218075 -33.58153808 368.91361648 C-33.55919318 355.70940391 -33.54818919 342.50518957 -33.53814721 329.30096281 C-33.51723496 302.13812099 -33.48205016 274.9753126 -33.4375 247.8125 C-34.54876251 247.66269684 -35.66002502 247.51289368 -36.80496216 247.35855103 C-39.74171692 246.91709163 -41.70278266 246.49916045 -44.3046875 245.2109375 C-44.95808105 244.88947754 -45.61147461 244.56801758 -46.28466797 244.23681641 C-46.95385254 243.89054199 -47.62303711 243.54426758 -48.3125 243.1875 C-49.01648926 242.8270459 -49.72047852 242.4665918 -50.44580078 242.09521484 C-55.95343533 239.2048184 -60.82789637 236.01332746 -65.4375 231.8125 C-66.64792969 230.73935547 -66.64792969 230.73935547 -67.8828125 229.64453125 C-83.50519511 215.00153349 -92.01199462 195.40939473 -92.71850586 174.04199219 C-93.04612778 152.79990113 -85.39993512 132.64042017 -70.83300781 117.11474609 C-60.21711781 106.26589429 -48.1278467 99.39069997 -33.4375 95.8125 C-33.44638245 94.76537842 -33.45526489 93.71825684 -33.4644165 92.6394043 C-33.54563883 82.75270832 -33.60553086 72.86608038 -33.64474869 62.97912598 C-33.66558911 57.89658663 -33.69384194 52.81431747 -33.73925781 47.73193359 C-33.78284205 42.8235917 -33.80666376 37.91550906 -33.81700897 33.00698853 C-33.82437779 31.13794883 -33.83876737 29.2689227 -33.86042023 27.3999939 C-33.88962176 24.77416753 -33.89344907 22.14940111 -33.89160156 19.5234375 C-33.91317322 18.37436165 -33.91317322 18.37436165 -33.93518066 17.20207214 C-33.88661944 10.78865528 -31.83716854 5.7720912 -27.796875 0.7890625 C-19.26123074 -6.37922127 -8.96927246 -7.30707702 0 0 Z M-42.8125 146.1875 C-49.60802252 154.3667882 -52.98870947 163.35660512 -52.7578125 174.02734375 C-51.85360135 181.88956993 -49.40246102 189.60629872 -44.4375 195.8125 C-43.6021875 197.05 -43.6021875 197.05 -42.75 198.3125 C-36.04202397 205.56436598 -26.7995465 210.10157576 -17.01171875 211.1953125 C-6.55112348 211.53828284 2.17686574 209.20155468 10.5625 202.8125 C11.3875 202.255625 12.2125 201.69875 13.0625 201.125 C20.77024585 193.99533508 24.56591574 184.46044434 25.91015625 174.14453125 C26.35303985 162.03262765 21.73406967 152.63580871 13.75 143.80859375 C6.34277217 136.66370524 -3.22093312 133.12339648 -13.4296875 132.68359375 C-25.05393293 133.1817757 -34.89054405 137.71013016 -42.8125 146.1875 Z " fill="#000000" transform="translate(269.4375,17.1875)"/>
<path d="M0 0 C5.36110552 4.63004568 7.83786996 9.38837938 8.75 16.375 C8.88522239 19.33700526 8.88079764 22.29408403 8.87025452 25.25875854 C8.87110894 26.14184885 8.87196337 27.02493916 8.87284368 27.93478978 C8.87448792 30.88737412 8.8689944 33.83990138 8.86352539 36.79248047 C8.86324327 38.91156513 8.86340175 41.03064989 8.8639679 43.1497345 C8.86425488 48.8992044 8.85837408 54.64865344 8.85139394 60.3981185 C8.84514399 66.40791817 8.8445553 72.41771833 8.84336853 78.42752075 C8.84026007 89.80647584 8.83205319 101.18542132 8.82201904 112.56437218 C8.81084288 125.51952353 8.80534366 138.47467534 8.80032361 151.42983031 C8.78987019 178.07822553 8.7722801 204.72661223 8.75 231.375 C10.15088867 231.59651733 10.15088867 231.59651733 11.58007812 231.82250977 C27.31815946 234.56552255 43.0199013 246.84293082 52.12109375 259.62890625 C57.00566242 266.78796113 60.9676359 274.13702001 63.75 282.375 C64.06839844 283.29667969 64.38679687 284.21835937 64.71484375 285.16796875 C70.71610142 306.10323169 66.93538 327.91094799 56.83984375 346.76171875 C54.26335558 351.35313751 51.19124849 355.40117734 47.75 359.375 C46.84121094 360.57962891 46.84121094 360.57962891 45.9140625 361.80859375 C36.58450989 372.87270217 22.5821323 380.0375312 8.75 383.375 C8.75444122 384.37200928 8.75888245 385.36901855 8.76345825 386.39624023 C8.80407818 395.81206626 8.8340198 405.2278744 8.85362434 414.64376831 C8.86404218 419.48406641 8.87816478 424.32429353 8.90087891 429.16455078 C8.92267869 433.83945408 8.93458366 438.51428928 8.93975449 443.1892395 C8.94343745 444.96893383 8.95062928 446.74862461 8.96146011 448.52828979 C8.97606998 451.02935719 8.977974 453.53014651 8.97705078 456.03125 C8.98424133 456.75989761 8.99143188 457.48854523 8.99884033 458.23927307 C8.96914946 465.718272 7.7061297 472.50589904 2.75 478.375 C-1.89036299 482.11559762 -6.1850744 484.26669776 -12.25 484.375 C-17.72760462 483.67027894 -21.93327361 481.90686705 -26.25 478.375 C-30.66052818 472.53403025 -31.39588719 468.28124492 -31.36352539 461.13989258 C-31.36367142 460.30064743 -31.36381744 459.46140228 -31.3639679 458.59672546 C-31.36327087 455.82096783 -31.35548829 453.04527718 -31.34765625 450.26953125 C-31.34579132 448.34567807 -31.34436777 446.42182441 -31.34336853 444.49797058 C-31.33954924 439.43285818 -31.32972394 434.36777442 -31.31866455 429.30267334 C-31.30843781 424.13472888 -31.3038682 418.96677979 -31.29882812 413.79882812 C-31.28810117 403.65753949 -31.27103177 393.51627213 -31.25 383.375 C-31.8580397 383.24739288 -32.46607941 383.11978577 -33.09254456 382.98831177 C-33.89546432 382.81572845 -34.69838409 382.64314514 -35.52563477 382.46533203 C-36.31929947 382.29647491 -37.11296417 382.1276178 -37.93067932 381.9536438 C-47.84995535 379.47889867 -56.79664444 373.13959663 -64.25 366.375 C-65.51457031 365.24964844 -65.51457031 365.24964844 -66.8046875 364.1015625 C-80.76780868 350.98726327 -89.60242823 332.38885379 -90.5703125 313.22265625 C-91.19595141 292.40925009 -86.56070773 273.80200773 -73.25 257.375 C-72.57066406 256.5190625 -71.89132812 255.663125 -71.19140625 254.78125 C-60.92123359 242.57010892 -47.22657678 235.30049688 -32.25 230.375 C-32.24853344 229.25370697 -32.24706688 228.13241394 -32.24555588 226.97714233 C-32.20896114 199.69379821 -32.14951179 172.41057684 -32.06609726 145.12733459 C-32.02628773 131.93335771 -31.9939049 118.73944063 -31.97900391 105.54541016 C-31.96599738 94.0455133 -31.93905808 82.54574794 -31.89538693 71.04592514 C-31.87274987 64.95682711 -31.85709068 58.8678914 -31.85811615 52.77874756 C-31.85886142 47.04627354 -31.84096364 41.31415868 -31.80883217 35.58177757 C-31.80032066 33.47915472 -31.7985917 31.37649164 -31.80419731 29.27385902 C-31.81083971 26.39919477 -31.79291038 23.52567237 -31.76898193 20.65112305 C-31.77674235 19.8223081 -31.78450277 18.99349316 -31.79249835 18.13956261 C-31.70897553 12.45741418 -30.41383176 8.13361437 -27.25 3.375 C-19.00042083 -4.46210021 -9.97354857 -4.98677429 0 0 Z M-41.5 281.625 C-49.56796535 291.71557505 -51.64936111 302.78074999 -50.25 315.375 C-47.00784881 327.67281487 -40.07041719 336.001098 -29.25 342.375 C-20.92262606 346.81518181 -10.76859828 347.34958225 -1.69140625 345.1640625 C9.42382725 341.57161903 17.23228042 335.48465474 23.23046875 325.4921875 C27.99664966 315.71477781 28.76486024 305.77947514 25.75 295.375 C21.64702649 284.42928239 15.38541535 276.93214327 5.12109375 271.3828125 C-11.41653124 264.35364076 -29.38630628 268.49153104 -41.5 281.625 Z " fill="#000000" transform="translate(445.25,15.625)"/>
<path d="M0 0 C4.50828841 5.970436 5.14975604 10.37814067 5.15821838 17.67485046 C5.16562535 19.02014233 5.16562535 19.02014233 5.17318195 20.3926118 C5.18858862 23.40976989 5.19692616 26.42690665 5.20532227 29.4440918 C5.2148983 31.60214426 5.22490821 33.76019483 5.23532104 35.91824341 C5.26240595 41.78770124 5.2833961 47.65716714 5.30332303 53.52665305 C5.32516048 59.65660312 5.35256012 65.7865282 5.37937927 71.91645813 C5.4293365 83.52924025 5.47426408 95.14203621 5.51740164 106.75484544 C5.56674813 119.97354338 5.62167585 133.19221627 5.67708123 146.41088998 C5.79094779 173.60723662 5.89777664 200.80360728 6 228 C6.87245361 228.32830811 7.74490723 228.65661621 8.64379883 228.99487305 C9.79904053 229.43355713 10.95428223 229.87224121 12.14453125 230.32421875 C13.85539917 230.97136841 13.85539917 230.97136841 15.60083008 231.6315918 C34.99659542 239.43976997 50.28264691 254.33185916 58.5390625 273.58984375 C66.07543089 293.88515161 67.0122516 316.17220451 58.19921875 336.22265625 C54.67235319 343.81091974 50.66861026 350.79374835 45 357 C44.26136719 357.81855469 43.52273437 358.63710938 42.76171875 359.48046875 C32.86362188 369.91530452 21.56579989 376.56211751 8 381 C7.01 381 6.02 381 5 381 C5.00888245 382.05964966 5.01776489 383.11929932 5.0269165 384.21105957 C5.10813481 394.21548549 5.16802895 404.21984419 5.20724869 414.22452545 C5.22809011 419.36759726 5.25634483 424.51040212 5.30175781 429.65332031 C5.3453384 434.62001659 5.36916301 439.58645669 5.37950897 444.55332947 C5.38687844 446.44469737 5.40126928 448.33605185 5.42292023 450.22731018 C5.45211682 452.88426604 5.45594926 455.5401742 5.45410156 458.19726562 C5.46848267 458.97266693 5.48286377 459.74806824 5.49768066 460.54696655 C5.45601624 466.11328727 4.07561338 470.33723777 1 475 C-3.8961589 479.65135096 -8.24907796 481.54993853 -15 482 C-21.12626395 481.25347267 -26.51485252 479.14337573 -30.4453125 474.171875 C-34.79409497 467.66112638 -35.15128826 461.61215457 -35.11352539 453.88330078 C-35.11367142 453.09238541 -35.11381744 452.30147003 -35.1139679 451.48658752 C-35.11327489 448.88946731 -35.10551129 446.29242009 -35.09765625 443.6953125 C-35.0957899 441.8878483 -35.09436702 440.08038359 -35.09336853 438.2729187 C-35.08956049 433.52842804 -35.07974488 428.78396826 -35.06866455 424.03948975 C-35.05841355 419.19299741 -35.05386302 414.34650006 -35.04882812 409.5 C-35.03812102 399.99998647 -35.02106525 390.49999581 -35 381 C-35.68416992 380.79880051 -36.36833984 380.59760101 -37.07324219 380.39030457 C-37.97204102 380.12381607 -38.87083984 379.85732758 -39.796875 379.58276367 C-40.68729492 379.31968918 -41.57771484 379.05661469 -42.49511719 378.78556824 C-54.07083857 375.15525108 -63.82548394 367.81987259 -72 359 C-72.59167969 358.41347656 -73.18335937 357.82695312 -73.79296875 357.22265625 C-89.17540039 341.24515956 -93.55278408 320.66943365 -93.26953125 299.16796875 C-92.71144038 281.11936511 -85.14229158 264.2701329 -73 251 C-72.40960938 250.31808594 -71.81921875 249.63617188 -71.2109375 248.93359375 C-62.81785553 239.80834931 -50.82766987 232.64350821 -39 229 C-37.68 229 -36.36 229 -35 229 C-35.00184359 227.8993219 -35.00368717 226.7986438 -35.00558662 225.66461182 C-35.04998675 198.88206273 -35.08285203 172.09951842 -35.10362434 145.31694031 C-35.11393668 132.36508883 -35.12799626 119.41326166 -35.15087891 106.46142578 C-35.17081401 95.17254813 -35.18371674 83.88368809 -35.18817699 72.59479332 C-35.19078415 66.61749466 -35.19691135 60.64024638 -35.21146011 54.66296387 C-35.22504586 49.0356811 -35.2292206 43.40846941 -35.22621536 37.7811718 C-35.22676508 35.71722973 -35.23073657 33.65328525 -35.23841095 31.58935738 C-35.24838766 28.76757391 -35.24595887 25.94605746 -35.24050903 23.12426758 C-35.24633472 22.31101643 -35.2521604 21.49776527 -35.25816262 20.65987015 C-35.21815324 12.9750982 -34.1126384 6.05444021 -29 0 C-19.73090498 -7.32813068 -9.29890279 -7.78512791 0 0 Z M-44.6875 279.625 C-50.76840397 286.91651872 -54.4427289 296.46749332 -54 306 C-52.64261546 318.11748494 -48.5350383 327.45681872 -39.1875 335.4375 C-30.10594423 342.12196337 -20.64111016 344.71795574 -9.3671875 343.78125 C0.13148569 342.23287694 9.52121229 337.66037743 15.5546875 330.03515625 C23.03216115 319.45136893 25.24118119 309.79568238 24 297 C21.82483877 286.60041257 15.75837544 278.34250031 7.12109375 272.28125 C-10.9598038 261.35945553 -30.23202718 264.64104752 -44.6875 279.625 Z " fill="#000000" transform="translate(93,18)"/>
</svg>
