<svg xmlns="http://www.w3.org/2000/svg"  viewBox="0 0 50 50" width="50px" height="50px"><path d="M 47.693359 2.0566406 A 1.0001 1.0001 0 0 0 46.990234 2.3476562 L 40.878906 8.4648438 A 1.0001 1.0001 0 0 0 40.748047 8.5761719 L 19.148438 30.302734 L 19.146484 30.304688 L 19.144531 30.306641 A 1.0001 1.0001 0 0 0 20.451172 31.814453 L 35.529297 20.667969 C 35.803833 20.465406 36.057023 20.509715 36.160156 20.759766 A 1.0001 1.0001 0 0 0 36.162109 20.761719 C 37.868183 24.878368 37.11223 29.816866 33.712891 33.222656 C 30.698009 36.240313 26.717838 37.153738 22.810547 36.152344 A 1.0001 1.0001 0 0 0 22.101562 36.232422 L 16.792969 38.988281 A 1.0001 1.0001 0 0 0 16.765625 40.748047 C 24.182764 44.893259 32.831461 43.392907 38.34375 37.871094 C 42.935803 33.27489 44.392405 27.010487 43.15625 21.328125 A 1.0001 1.0001 0 0 0 43.132812 21.035156 C 42.231131 17.152296 42.353537 14.61069 43.224609 12.183594 C 44.095679 9.756497 45.796087 7.3821182 48.167969 4.1132812 A 1.0001 1.0001 0 0 0 48.171875 4.1054688 C 48.280235 3.9530596 48.393046 3.7979445 48.505859 3.6425781 A 1.0001 1.0001 0 0 0 47.693359 2.0566406 z M 25.466797 7.1484375 C 20.924461 7.1965099 16.391217 8.9602164 12.935547 12.417969 C 7.8605069 17.50043 6.2695233 25.288658 9.0097656 31.958984 C 9.8707378 34.054566 9.6074336 35.662753 8.7539062 37.316406 C 7.900379 38.970059 6.3787618 40.593923 4.7832031 42.271484 C 3.6516332 43.460083 2.4898038 44.677896 1.5214844 46.011719 A 1.0001 1.0001 0 0 0 2.9980469 47.345703 L 17.175781 34.666016 L 16.882812 34.707031 A 1.0001 1.0001 0 0 0 17.433594 32.996094 C 12.571686 28.347056 13.445454 21.209423 17.583984 17.064453 C 20.020918 14.622956 23.764311 13.321432 27.390625 13.855469 A 1.0001 1.0001 0 0 0 27.998047 13.753906 L 33.689453 10.800781 A 1.0001 1.0001 0 0 0 33.667969 9.0136719 C 33.291062 8.8298151 32.888304 8.6495154 32.458984 8.4882812 L 32.455078 8.4863281 C 30.833495 7.818349 29.131947 7.4009426 27.410156 7.2324219 C 26.763955 7.1691748 26.115702 7.14157 25.466797 7.1484375 z M 25.492188 9.1464844 C 26.068361 9.1406581 26.64522 9.1663196 27.21875 9.2226562 C 28.412173 9.3398838 29.567757 9.7050552 30.712891 10.091797 L 27.292969 11.867188 C 23.143959 11.381735 18.982369 12.832673 16.167969 15.652344 C 11.540262 20.287251 10.531883 28.170054 15.353516 33.613281 L 10.652344 37.816406 C 11.54662 35.875926 11.861915 33.639372 10.859375 31.199219 C 8.4316173 25.289545 9.8526029 18.335617 14.351562 13.830078 C 17.42942 10.750979 21.458974 9.1872681 25.492188 9.1464844 z M 42.058594 10.097656 C 41.839058 10.565854 41.514449 11.026747 41.341797 11.507812 C 40.361603 14.238969 40.27427 17.240854 41.150391 21.195312 A 1.0001 1.0001 0 0 0 41.175781 21.480469 C 42.383615 26.611409 41.106341 32.278558 36.929688 36.458984 C 32.497554 40.898775 25.87543 42.214714 19.71875 39.722656 L 22.755859 38.146484 C 27.145803 39.12601 31.736987 38.029806 35.126953 34.636719 C 39.105129 30.650994 40.012739 24.833048 38.009766 19.998047 L 38.009766 19.996094 C 37.410213 18.545423 35.546832 18.169473 34.341797 19.058594 L 29.835938 22.390625 L 42.041016 10.111328 L 42.044922 10.109375 A 1.0001 1.0001 0 0 0 42.058594 10.097656 z"/></svg>